<svg width="41" height="41" viewBox="0 0 41 41" fill="none" xmlns="http://www.w3.org/2000/svg">
<path d="M35.875 20.5C35.875 17.2875 34.8687 14.1557 32.9975 11.5444C31.1263 8.93313 28.4842 6.97358 25.4421 5.94095C22.4001 4.90832 19.111 4.8545 16.0369 5.78704C12.9627 6.71958 10.2578 8.59164 8.30219 11.1403C6.34654 13.6889 5.23834 16.7862 5.13323 19.9969C5.02812 23.2077 5.93138 26.3708 7.71615 29.0419C9.50093 31.713 12.0776 33.7579 15.0842 34.8896C18.0908 36.0212 21.3763 36.1826 24.4793 35.3511" stroke="#707073" stroke-width="2" stroke-linecap="round"/>
<circle cx="20.5001" cy="20.5001" r="6.83333" stroke="#707073" stroke-width="2"/>
<path d="M27.3333 15.375V23.0625C27.3333 25.4212 29.2454 27.3333 31.6041 27.3333V27.3333C33.9628 27.3333 35.8749 25.4212 35.8749 23.0625V20.5" stroke="#707073" stroke-width="2" stroke-linecap="round"/>
</svg>
