<svg width="45" height="45" viewBox="0 0 45 45" fill="none" xmlns="http://www.w3.org/2000/svg">
<circle cx="22.5" cy="16.875" r="7.5" fill="#557CF2"/>
<circle cx="31.875" cy="16.875" r="5.625" fill="#557CF2"/>
<circle cx="13.125" cy="16.875" r="5.625" fill="#557CF2"/>
<path fill-rule="evenodd" clip-rule="evenodd" d="M32.9409 33.75H38.2701C38.8617 33.75 39.3163 33.2423 39.2034 32.6615C38.7234 30.1915 37.0442 24.375 31.8751 24.375C30.2137 24.375 28.9128 24.9759 27.8963 25.8734C30.7234 27.7075 32.1851 30.9192 32.9409 33.75Z" fill="#557CF2"/>
<path fill-rule="evenodd" clip-rule="evenodd" d="M17.1037 25.8734C16.0873 24.9759 14.7864 24.375 13.125 24.375C7.9559 24.375 6.27669 30.1915 5.79665 32.6615C5.68378 33.2423 6.13834 33.75 6.72996 33.75H12.0592C12.8149 30.9192 14.2767 27.7075 17.1037 25.8734Z" fill="#557CF2"/>
<path d="M22.5 26.25C30.1564 26.25 31.56 33.7534 31.8172 36.5044C31.8687 37.0543 31.4273 37.5 30.875 37.5H14.125C13.5727 37.5 13.1313 37.0543 13.1828 36.5044C13.44 33.7534 14.8436 26.25 22.5 26.25Z" fill="#557CF2"/>
</svg>
