<svg width="41" height="41" viewBox="0 0 41 41" fill="none" xmlns="http://www.w3.org/2000/svg">
<path d="M6.83337 32.4583C6.83337 31.1331 6.83337 30.4705 7.13497 29.9855C7.29697 29.725 7.51672 29.5053 7.77724 29.3433C8.26224 29.0417 8.92484 29.0417 10.25 29.0417H30.1667C32.0523 29.0417 32.9951 29.0417 33.5809 28.4559C34.1667 27.8701 34.1667 26.9273 34.1667 25.0417V23.9167V31.875C34.1667 33.7606 34.1667 34.7034 33.5809 35.2892C32.9951 35.875 32.0523 35.875 30.1667 35.875H10.25C8.92484 35.875 8.26224 35.875 7.77724 35.5734C7.51672 35.4114 7.29697 35.1917 7.13497 34.9311C6.83337 34.4461 6.83337 33.7835 6.83337 32.4583Z" fill="#557CF2"/>
<path d="M16.2291 17.9375L19.5397 21.2481C19.5983 21.3067 19.6933 21.3067 19.7519 21.2481L26.4791 14.5208" stroke="#557CF2" stroke-width="1.2"/>
</svg>
