<svg width="44" height="42" viewBox="0 0 44 42" fill="none" xmlns="http://www.w3.org/2000/svg">
<path fill-rule="evenodd" clip-rule="evenodd" d="M21.45 0C19.7837 0 18.4329 1.35082 18.4329 3.01714H15.8125C12.6454 3.01714 11.0619 3.01714 9.92438 3.77721C9.43193 4.10626 9.00912 4.52907 8.68007 5.02152C7.92 6.15905 7.92 7.74258 7.92 10.9096V32.3321C7.92 36.5842 7.92 38.7103 9.24095 40.0312C10.5619 41.3521 12.6879 41.3521 16.94 41.3521H34.98C39.2321 41.3521 41.3581 41.3521 42.6791 40.0312C44 38.7103 44 36.5842 44 32.3321V10.9096C44 7.74258 44 6.15905 43.2399 5.02152C42.9109 4.52907 42.4881 4.10626 41.9956 3.77721C40.8581 3.01714 39.2746 3.01714 36.1075 3.01714H33.4871C33.4871 1.35082 32.1363 0 30.47 0H21.45ZM22.6993 3.01714C22.6993 2.4617 23.1496 2.01143 23.705 2.01143H28.215C28.7704 2.01143 29.2207 2.4617 29.2207 3.01714C29.2207 3.57258 28.7704 4.02286 28.215 4.02286H23.705C23.1496 4.02286 22.6993 3.57258 22.6993 3.01714ZM19.195 17.7965C18.6396 17.7965 18.1893 18.2467 18.1893 18.8022C18.1893 19.3576 18.6396 19.8079 19.195 19.8079H32.725C33.2804 19.8079 33.7307 19.3576 33.7307 18.8022C33.7307 18.2467 33.2804 17.7965 32.725 17.7965H19.195ZM19.195 26.8165C18.6396 26.8165 18.1893 27.2667 18.1893 27.8222C18.1893 28.3776 18.6396 28.8279 19.195 28.8279H28.215C28.7704 28.8279 29.2207 28.3776 29.2207 27.8222C29.2207 27.2667 28.7704 26.8165 28.215 26.8165H19.195Z" fill="#557CF2"/>
</svg>
