<svg width="44" height="42" viewBox="0 0 44 42" fill="none" xmlns="http://www.w3.org/2000/svg">
<path fill-rule="evenodd" clip-rule="evenodd" d="M21.3281 0.625C19.6713 0.625 18.3281 1.96815 18.3281 3.625H15.7227C12.5736 3.625 10.9991 3.625 9.86799 4.38075C9.37834 4.70793 8.95793 5.12834 8.63075 5.61799C7.875 6.74905 7.875 8.32359 7.875 11.4727V32.7734C7.875 37.0014 7.875 39.1153 9.18844 40.4287C10.5019 41.7422 12.6158 41.7422 16.8437 41.7422H34.7812C39.0092 41.7422 41.1231 41.7422 42.4366 40.4287C43.75 39.1153 43.75 37.0014 43.75 32.7734V11.4727C43.75 8.32359 43.75 6.74905 42.9942 5.61799C42.6671 5.12834 42.2467 4.70793 41.757 4.38075C40.6259 3.625 39.0514 3.625 35.9023 3.625H33.2969C33.2969 1.96815 31.9537 0.625 30.2969 0.625H21.3281ZM22.5703 3.625C22.5703 3.07272 23.018 2.625 23.5703 2.625H28.0547C28.607 2.625 29.0547 3.07272 29.0547 3.625C29.0547 4.17728 28.607 4.625 28.0547 4.625H23.5703C23.018 4.625 22.5703 4.17728 22.5703 3.625ZM19.0859 18.3203C18.5336 18.3203 18.0859 18.7681 18.0859 19.3203C18.0859 19.8726 18.5336 20.3203 19.0859 20.3203H32.5391C33.0913 20.3203 33.5391 19.8726 33.5391 19.3203C33.5391 18.7681 33.0913 18.3203 32.5391 18.3203H19.0859ZM19.0859 27.2891C18.5336 27.2891 18.0859 27.7368 18.0859 28.2891C18.0859 28.8414 18.5336 29.2891 19.0859 29.2891H28.0547C28.607 29.2891 29.0547 28.8414 29.0547 28.2891C29.0547 27.7368 28.607 27.2891 28.0547 27.2891H19.0859Z" fill="#557CF2"/>
</svg>
