<svg width="41" height="41" viewBox="0 0 41 41" fill="none" xmlns="http://www.w3.org/2000/svg">
<path d="M6.83333 14.25C6.83333 12.3644 6.83333 11.4216 7.41911 10.8358C8.0049 10.25 8.94771 10.25 10.8333 10.25H30.1667C32.0523 10.25 32.9951 10.25 33.5809 10.8358C34.1667 11.4216 34.1667 12.3644 34.1667 14.25V21.9167C34.1667 22.8595 34.1667 23.3309 33.8738 23.6238C33.5809 23.9167 33.1095 23.9167 32.1667 23.9167H29.3417C29.2002 23.9167 29.1295 23.9167 29.0856 23.8727C29.0417 23.8288 29.0417 23.7581 29.0417 23.6167V20.7917C29.0417 19.8489 29.0417 19.3775 28.7488 19.0846C28.4559 18.7917 27.9845 18.7917 27.0417 18.7917H13.9583C13.0155 18.7917 12.5441 18.7917 12.2512 19.0846C11.9583 19.3775 11.9583 19.8489 11.9583 20.7917V23.6167C11.9583 23.7581 11.9583 23.8288 11.9144 23.8727C11.8705 23.9167 11.7997 23.9167 11.6583 23.9167H7.83333C7.36192 23.9167 7.12622 23.9167 6.97977 23.7702C6.83333 23.6238 6.83333 23.3881 6.83333 22.9167V14.25Z" fill="#557CF2"/>
<path d="M11.9583 35.1365L11.9583 20.7917C11.9583 19.8489 11.9583 19.3775 12.2512 19.0846C12.5441 18.7917 13.0155 18.7917 13.9583 18.7917L27.0417 18.7917C27.9845 18.7917 28.4559 18.7917 28.7488 19.0846C29.0417 19.3775 29.0417 19.8489 29.0417 20.7917L29.0417 35.1365C29.0417 35.4711 29.0417 35.6384 28.9318 35.7128C28.822 35.7871 28.6666 35.725 28.356 35.6007L24.9565 34.2409C24.8648 34.2043 24.819 34.1859 24.7708 34.1859C24.7227 34.1859 24.6768 34.2043 24.5851 34.2409L20.6857 35.8007C20.594 35.8374 20.5481 35.8557 20.5 35.8557C20.4518 35.8557 20.406 35.8374 20.3143 35.8007L16.4149 34.2409C16.3232 34.2043 16.2773 34.1859 16.2292 34.1859C16.181 34.1859 16.1352 34.2043 16.0435 34.2409L12.644 35.6007C12.3334 35.725 12.178 35.7871 12.0682 35.7128C11.9583 35.6384 11.9583 35.4711 11.9583 35.1365Z" fill="#7E869E" fill-opacity="0.25"/>
<path d="M16.2292 24.7708L23.0625 24.7708" stroke="#222222" stroke-linecap="round"/>
<path d="M16.2292 29.8958L24.7708 29.8958" stroke="#222222" stroke-linecap="round"/>
<path d="M11.9583 7.125C11.9583 6.18219 11.9583 5.71079 12.2512 5.41789C12.5441 5.125 13.0155 5.125 13.9583 5.125H27.0417C27.9845 5.125 28.4559 5.125 28.7488 5.41789C29.0417 5.71079 29.0417 6.18219 29.0417 7.125V8.24167C29.0417 8.38309 29.0417 8.4538 28.9977 8.49773C28.9538 8.54167 28.8831 8.54167 28.7417 8.54167H12.2583C12.1169 8.54167 12.0462 8.54167 12.0023 8.49773C11.9583 8.4538 11.9583 8.38309 11.9583 8.24167V7.125Z" fill="#557CF2"/>
</svg>
