<svg width="94" height="116" viewBox="0 0 94 116" fill="none" xmlns="http://www.w3.org/2000/svg">
<mask id="path-1-inside-1_26_22" fill="white">
<path fill-rule="evenodd" clip-rule="evenodd" d="M90.8723 116C92.8019 108.585 93.8283 100.811 93.8283 92.8C93.8283 41.548 51.8199 0 0 0L3.83381e-06 46.4C25.91 46.4 46.9141 67.174 46.9141 92.8C46.9141 101.251 44.6295 109.175 40.6378 116H90.8723Z"/>
</mask>
<path fill-rule="evenodd" clip-rule="evenodd" d="M90.8723 116C92.8019 108.585 93.8283 100.811 93.8283 92.8C93.8283 41.548 51.8199 0 0 0L3.83381e-06 46.4C25.91 46.4 46.9141 67.174 46.9141 92.8C46.9141 101.251 44.6295 109.175 40.6378 116H90.8723Z" fill="#222222"/>
<path d="M90.8723 116V117.005H91.6492L91.8449 116.253L90.8723 116ZM0 0V-1.00501H-1.00501L-1.00501 8.30392e-08L0 0ZM3.83381e-06 46.4H-1.00501L-1.00501 47.405H3.83381e-06V46.4ZM40.6378 116L39.7703 115.493L38.8857 117.005H40.6378V116ZM92.8233 92.8C92.8233 100.725 91.808 108.414 89.8996 115.747L91.8449 116.253C93.7959 108.756 94.8333 100.897 94.8333 92.8H92.8233ZM0 1.00501C51.2753 1.00501 92.8233 42.1134 92.8233 92.8H94.8333C94.8333 40.9825 52.3645 -1.00501 0 -1.00501V1.00501ZM1.00501 46.4L1.00501 -8.30392e-08L-1.00501 8.30392e-08L-1.00501 46.4H1.00501ZM47.9191 92.8C47.9191 66.6085 26.4545 45.395 3.83381e-06 45.395V47.405C25.3654 47.405 45.9091 67.7394 45.9091 92.8H47.9191ZM41.5054 116.507C45.5844 109.533 47.9191 101.435 47.9191 92.8H45.9091C45.9091 101.068 43.6747 108.817 39.7703 115.493L41.5054 116.507ZM40.6378 117.005H90.8723V114.995H40.6378V117.005Z" fill="black" mask="url(#path-1-inside-1_26_22)"/>
</svg>
