<svg width="38" height="38" viewBox="0 0 38 38" fill="none" xmlns="http://www.w3.org/2000/svg">
<path fill-rule="evenodd" clip-rule="evenodd" d="M19.0598 4.80962C11.2227 4.77658 4.84281 11.103 4.80977 18.94C4.77674 26.777 11.1031 33.1569 18.9401 33.19C26.7772 33.223 33.1571 26.8966 33.1901 19.0596C33.2232 11.2226 26.8968 4.84265 19.0598 4.80962ZM22.5411 25.529L12.3544 20.3818C11.1947 19.7959 11.2017 18.1375 12.3662 17.5614L22.596 12.5003C23.8567 11.8766 25.333 12.7976 25.327 14.2041L25.2864 23.8482C25.2804 25.2547 23.7964 26.1633 22.5411 25.529Z" fill="#373737"/>
<path d="M11.3655 19.8826L23.5012 26.0145C24.3154 26.4259 25.278 25.8366 25.2819 24.9242L25.3316 13.1289C25.3355 12.2166 24.3779 11.6191 23.5601 12.0237L11.3732 18.0531C10.6178 18.4268 10.6133 19.5025 11.3655 19.8826Z" stroke="#222222" stroke-linecap="round" stroke-linejoin="round"/>
<circle cx="19" cy="18.9998" r="14.1903" transform="rotate(-179.758 19 18.9998)" stroke="#222222"/>
</svg>
