<svg width="37" height="37" viewBox="0 0 37 37" fill="none" xmlns="http://www.w3.org/2000/svg">
<path fill-rule="evenodd" clip-rule="evenodd" d="M18.5 32.375C26.163 32.375 32.375 26.163 32.375 18.5C32.375 10.837 26.163 4.625 18.5 4.625C10.837 4.625 4.625 10.837 4.625 18.5C4.625 26.163 10.837 32.375 18.5 32.375ZM15.0107 12.1306L24.9922 17.1213C26.1285 17.6895 26.1285 19.311 24.9922 19.8791L15.0107 24.8699C13.7806 25.4849 12.3333 24.5904 12.3333 23.2152V13.7852C12.3333 12.41 13.7806 11.5155 15.0107 12.1306Z" fill="#373737"/>
<path d="M25.9611 17.6057L14.07 11.6601C13.2721 11.2611 12.3333 11.8413 12.3333 12.7334V24.2668C12.3333 25.1588 13.2721 25.739 14.07 25.3401L25.9611 19.3945C26.6982 19.026 26.6982 17.9742 25.9611 17.6057Z" stroke="#222222" stroke-linecap="round" stroke-linejoin="round"/>
<circle cx="18.5" cy="18.5" r="13.875" stroke="#222222"/>
</svg>
