<svg width="70" height="70" viewBox="0 0 70 70" fill="none" xmlns="http://www.w3.org/2000/svg">
<circle cx="35" cy="23.3333" r="8.25" stroke="#222222" stroke-linecap="round"/>
<path d="M39.3266 18.4791C39.9982 17.3158 40.9997 16.3778 42.2044 15.7837C43.4092 15.1895 44.763 14.966 46.0948 15.1414C47.4266 15.3167 48.6765 15.883 49.6864 16.7687C50.6963 17.6543 51.4209 18.8196 51.7686 20.1171C52.1162 21.4146 52.0713 22.7861 51.6396 24.058C51.2078 25.33 50.4085 26.4454 49.3428 27.2631C48.2771 28.0808 46.9929 28.5642 45.6525 28.652C44.3121 28.7399 42.9758 28.4283 41.8125 27.7567" stroke="#2A4157" stroke-opacity="0.24"/>
<path d="M30.6734 18.4791C30.0018 17.3158 29.0003 16.3778 27.7956 15.7837C26.5908 15.1895 25.237 14.966 23.9052 15.1414C22.5734 15.3167 21.3235 15.883 20.3136 16.7687C19.3037 17.6543 18.5791 18.8196 18.2314 20.1171C17.8838 21.4146 17.9287 22.7861 18.3604 24.058C18.7922 25.33 19.5915 26.4454 20.6572 27.2631C21.7229 28.0808 23.0071 28.5642 24.3475 28.652C25.6879 28.7399 27.0242 28.4283 28.1875 27.7567" stroke="#2A4157" stroke-opacity="0.24"/>
<path d="M56.7185 47.0381L57.2114 46.9542L56.7185 47.0381ZM38.1707 36.709L37.8014 36.3719L37.181 37.0514L38.0887 37.2022L38.1707 36.709ZM50.1121 48.1251L49.6318 48.264L49.7363 48.6251H50.1121V48.1251ZM45.2083 34.0417C49.2178 34.0417 51.8135 36.4117 53.5049 39.2757C55.2018 42.1492 55.9414 45.4528 56.2256 47.122L57.2114 46.9542C56.9197 45.2408 56.1547 41.7963 54.3659 38.7672C52.5715 35.7287 49.7002 33.0417 45.2083 33.0417V34.0417ZM38.5399 37.0461C40.1482 35.2847 42.3002 34.0417 45.2083 34.0417V33.0417C41.9723 33.0417 39.565 34.4403 37.8014 36.3719L38.5399 37.0461ZM38.0887 37.2022C45.325 38.4048 48.3538 43.8465 49.6318 48.264L50.5924 47.9861C49.2654 43.399 46.0384 37.5096 38.2527 36.2158L38.0887 37.2022ZM55.7699 47.6251H50.1121V48.6251H55.7699V47.6251ZM56.2256 47.122C56.2691 47.3774 56.0752 47.6251 55.7699 47.6251V48.6251C56.6479 48.6251 57.3665 47.8652 57.2114 46.9542L56.2256 47.122Z" fill="#2A4157" fill-opacity="0.24"/>
<path d="M31.8293 36.709L31.9113 37.2022L32.819 37.0514L32.1986 36.3719L31.8293 36.709ZM13.2815 47.0381L13.7744 47.122L13.2815 47.0381ZM19.8879 48.1251V48.6251H20.2637L20.3682 48.264L19.8879 48.1251ZM24.7917 34.0417C27.6998 34.0417 29.8518 35.2847 31.4601 37.0461L32.1986 36.3719C30.435 34.4403 28.0277 33.0417 24.7917 33.0417V34.0417ZM13.7744 47.122C14.0586 45.4528 14.7981 42.1492 16.4951 39.2757C18.1865 36.4117 20.7823 34.0417 24.7917 34.0417V33.0417C20.2998 33.0417 17.4285 35.7287 15.6341 38.7672C13.8452 41.7962 13.0803 45.2408 12.7885 46.9541L13.7744 47.122ZM14.23 47.6251C13.9248 47.6251 13.7309 47.3774 13.7744 47.122L12.7885 46.9541C12.6334 47.8652 13.352 48.6251 14.23 48.6251V47.6251ZM19.8879 47.6251H14.23V48.6251H19.8879V47.6251ZM20.3682 48.264C21.6462 43.8466 24.675 38.4048 31.9113 37.2022L31.7473 36.2158C23.9616 37.5096 20.7347 43.399 19.4076 47.9861L20.3682 48.264Z" fill="#2A4157" fill-opacity="0.24"/>
<path d="M35 36.4583C48.7245 36.4583 50.707 49.2677 50.9933 52.9683C51.0359 53.519 50.594 53.9583 50.0417 53.9583H19.9583C19.4061 53.9583 18.9641 53.519 19.0067 52.9683C19.2931 49.2677 21.2755 36.4583 35 36.4583Z" stroke="#222222" stroke-linecap="round"/>
</svg>
