<svg width="32" height="32" viewBox="0 0 32 32" fill="none" xmlns="http://www.w3.org/2000/svg">
<path fill-rule="evenodd" clip-rule="evenodd" d="M3.25244 7.25244C2.66666 7.83823 2.66666 8.78104 2.66666 10.6667V21.3333C2.66666 23.2189 2.66666 24.1617 3.25244 24.7475C3.83823 25.3333 4.78104 25.3333 6.66665 25.3333H25.3333C27.2189 25.3333 28.1617 25.3333 28.7475 24.7475C29.3333 24.1617 29.3333 23.2189 29.3333 21.3333V10.6667C29.3333 8.78104 29.3333 7.83823 28.7475 7.25244C28.1617 6.66666 27.2189 6.66666 25.3333 6.66666H6.66666C4.78104 6.66666 3.83823 6.66666 3.25244 7.25244ZM6.66666 9.66666C6.11437 9.66666 5.66666 10.1144 5.66666 10.6667C5.66666 11.2189 6.11437 11.6667 6.66666 11.6667H9.33332C9.88561 11.6667 10.3333 11.2189 10.3333 10.6667C10.3333 10.1144 9.88561 9.66666 9.33332 9.66666H6.66666ZM21.6667 21.3333C21.6667 20.781 22.1144 20.3333 22.6667 20.3333H25.3333C25.8856 20.3333 26.3333 20.781 26.3333 21.3333C26.3333 21.8856 25.8856 22.3333 25.3333 22.3333H22.6667C22.1144 22.3333 21.6667 21.8856 21.6667 21.3333ZM18 16C18 17.1046 17.1046 18 16 18C14.8954 18 14 17.1046 14 16C14 14.8954 14.8954 14 16 14C17.1046 14 18 14.8954 18 16ZM20 16C20 18.2091 18.2091 20 16 20C13.7909 20 12 18.2091 12 16C12 13.7909 13.7909 12 16 12C18.2091 12 20 13.7909 20 16Z" fill="#E9E9E9"/>
</svg>
