<svg width="33" height="35" viewBox="0 0 33 35" fill="none" xmlns="http://www.w3.org/2000/svg">
<path d="M16.9965 1.13841L16.6358 2.07581L16.9965 1.13841C16.5322 0.959697 16.018 0.959696 15.5536 1.13841L15.9143 2.07581L15.5536 1.13841L2.292 6.24199C1.43121 6.57325 0.906604 7.44812 1.01987 8.36346L2.65898 21.6101C2.89392 23.5088 3.89246 25.2298 5.42425 26.3761L15.0715 33.5951C15.785 34.129 16.7651 34.129 17.4786 33.5951L27.1259 26.3761C28.6577 25.2298 29.6562 23.5088 29.8911 21.6101L31.5302 8.36346C31.6435 7.44811 31.1189 6.57325 30.2581 6.24199L16.9965 1.13841Z" stroke="#1145E0" stroke-width="2" stroke-linecap="round"/>
</svg>
