<svg width="32" height="32" viewBox="0 0 32 32" fill="none" xmlns="http://www.w3.org/2000/svg">
<path d="M26.6667 6.33333C27.219 6.33333 27.6667 5.88562 27.6667 5.33333C27.6667 4.78105 27.219 4.33333 26.6667 4.33333V6.33333ZM7.33336 6.33333L26.6667 6.33333V4.33333L7.33336 4.33333V6.33333ZM7.33336 13L18 13V11L7.33336 11V13ZM5.00003 8.66667C5.00003 7.378 6.0447 6.33333 7.33336 6.33333V4.33333C4.94013 4.33333 3.00003 6.27343 3.00003 8.66667H5.00003ZM3.00003 8.66667C3.00003 11.0599 4.94013 13 7.33336 13V11C6.0447 11 5.00003 9.95533 5.00003 8.66667H3.00003Z" fill="#E9E9E9"/>
<path d="M4 16L4 8.66667" stroke="#E9E9E9" stroke-width="2"/>
<path d="M3.5 11.5H4L26 11.5H26.0329C26.4762 11.5 26.8581 11.5 27.1639 11.5411C27.4917 11.5851 27.8058 11.6845 28.0607 11.9393C28.3155 12.1942 28.4149 12.5083 28.4589 12.8361C28.5 13.1419 28.5 13.5238 28.5 13.9671L28.5 14V16V16.5H28H24C22.067 16.5 20.5 18.067 20.5 20C20.5 21.933 22.067 23.5 24 23.5H28H28.5V24V26C28.5 26.011 28.5 26.022 28.5 26.0329C28.5 26.4762 28.5 26.8581 28.4589 27.1639C28.4149 27.4917 28.3155 27.8058 28.0607 28.0607L3.5 11.5ZM3.5 11.5V12M3.5 11.5V12M3.5 12L3.5 26V26.0329C3.49998 26.4762 3.49995 26.8581 3.54107 27.1639C3.58514 27.4917 3.68451 27.8058 3.93934 28.0607C4.19417 28.3155 4.50834 28.4149 4.8361 28.4589C5.14193 28.5 5.52384 28.5 5.96708 28.5L6 28.5L26 28.5M3.5 12L26 28.5M26 28.5C26.011 28.5 26.022 28.5 26.0329 28.5M26 28.5L26.0329 28.5M26.0329 28.5C26.4762 28.5 26.8581 28.5 27.1639 28.4589M26.0329 28.5L27.1639 28.4589M27.1639 28.4589C27.4917 28.4149 27.8058 28.3155 28.0607 28.0607L27.1639 28.4589Z" fill="#E9E9E9" stroke="#E9E9E9"/>
</svg>
