<svg width="72" height="72" viewBox="0 0 72 72" fill="none" xmlns="http://www.w3.org/2000/svg">
<mask id="path-2-outside-1_0_200" maskUnits="userSpaceOnUse" x="8" y="8" width="56" height="32" fill="black">
<rect fill="white" x="8" y="8" width="56" height="32"/>
<path fill-rule="evenodd" clip-rule="evenodd" d="M18 39H36H59C61.2091 39 63 37.2091 63 35V25C63 22.7909 61.2091 21 59 21H52.3348C51.5768 21 51.1978 21 50.9344 20.8078C50.671 20.6156 50.5432 20.2166 50.2874 19.4184C48.351 13.3749 42.6864 9 36 9C29.3136 9 23.649 13.3749 21.7126 19.4184C21.4569 20.2166 21.329 20.6156 21.0656 20.8078C20.8022 21 20.4232 21 19.6652 21H18C13.0294 21 9 25.0294 9 30C9 34.9706 13.0294 39 18 39Z"/>
</mask>
<path fill-rule="evenodd" clip-rule="evenodd" d="M18 39H36H59C61.2091 39 63 37.2091 63 35V25C63 22.7909 61.2091 21 59 21H52.3348C51.5768 21 51.1978 21 50.9344 20.8078C50.671 20.6156 50.5432 20.2166 50.2874 19.4184C48.351 13.3749 42.6864 9 36 9C29.3136 9 23.649 13.3749 21.7126 19.4184C21.4569 20.2166 21.329 20.6156 21.0656 20.8078C20.8022 21 20.4232 21 19.6652 21H18C13.0294 21 9 25.0294 9 30C9 34.9706 13.0294 39 18 39Z" fill="#7E869E" fill-opacity="0.25"/>
<path d="M21.0656 20.8078L20.7119 20.3231L21.0656 20.8078ZM50.2874 19.4184L49.716 19.6015L50.2874 19.4184ZM50.9344 20.8078L51.2881 20.3231L50.9344 20.8078ZM36 38.4H18V39.6H36V38.4ZM59 38.4H36V39.6H59V38.4ZM62.4 35C62.4 36.8778 60.8778 38.4 59 38.4V39.6C61.5405 39.6 63.6 37.5405 63.6 35H62.4ZM62.4 25V35H63.6V25H62.4ZM59 21.6C60.8778 21.6 62.4 23.1222 62.4 25H63.6C63.6 22.4595 61.5405 20.4 59 20.4V21.6ZM52.3348 21.6H59V20.4H52.3348V21.6ZM50.8588 19.2353C48.8451 12.9507 42.9548 8.4 36 8.4V9.6C42.418 9.6 47.8569 13.7992 49.716 19.6015L50.8588 19.2353ZM36 8.4C29.0452 8.4 23.1549 12.9507 21.1412 19.2353L22.284 19.6015C24.1431 13.7992 29.582 9.6 36 9.6V8.4ZM18 21.6H19.6652V20.4H18V21.6ZM18 20.4C12.6981 20.4 8.4 24.6981 8.4 30H9.6C9.6 25.3608 13.3608 21.6 18 21.6V20.4ZM8.4 30C8.4 35.3019 12.6981 39.6 18 39.6V38.4C13.3608 38.4 9.6 34.6392 9.6 30H8.4ZM21.1412 19.2353C21.0095 19.6464 20.9237 19.912 20.8414 20.1018C20.7606 20.2883 20.7159 20.3202 20.7119 20.3231L21.4193 21.2925C21.6787 21.1032 21.8296 20.8395 21.9425 20.5789C22.054 20.3216 22.1599 19.9886 22.284 19.6015L21.1412 19.2353ZM19.6652 21.6C20.0309 21.6 20.3532 21.6008 20.6153 21.5725C20.8883 21.543 21.1675 21.4762 21.4193 21.2925L20.7119 20.3231C20.7003 20.3316 20.6584 20.3609 20.4865 20.3794C20.3038 20.3992 20.0576 20.4 19.6652 20.4V21.6ZM52.3348 20.4C51.9424 20.4 51.6963 20.3992 51.5135 20.3794C51.3416 20.3609 51.2997 20.3316 51.2881 20.3231L50.5807 21.2925C50.8325 21.4762 51.1117 21.543 51.3847 21.5725C51.6468 21.6008 51.9691 21.6 52.3348 21.6V20.4ZM49.716 19.6015C49.8401 19.9886 49.946 20.3216 50.0575 20.5789C50.1704 20.8395 50.3213 21.1032 50.5807 21.2925L51.2881 20.3231C51.2841 20.3202 51.2394 20.2883 51.1586 20.1018C51.0763 19.912 50.9905 19.6464 50.8588 19.2353L49.716 19.6015Z" fill="#7E869E" fill-opacity="0.25" mask="url(#path-2-outside-1_0_200)"/>
<path fill-rule="evenodd" clip-rule="evenodd" d="M35.9999 8.3999C29.0451 8.3999 23.1548 12.9506 21.1411 19.2352C21.0094 19.6463 20.9236 19.9119 20.8413 20.1017C20.7605 20.2882 20.7158 20.3201 20.7118 20.323C20.7002 20.3315 20.6583 20.3608 20.4864 20.3793C20.3037 20.3991 20.0575 20.3999 19.6651 20.3999H17.9999C12.698 20.3999 8.3999 24.698 8.3999 29.9999C8.3999 35.3018 12.698 39.5999 17.9999 39.5999H26.5715L27.7715 38.3999H17.9999C13.3607 38.3999 9.5999 34.6391 9.5999 29.9999C9.5999 25.3607 13.3607 21.5999 17.9999 21.5999H19.6651L19.6952 21.5999H19.6952C20.0484 21.5999 20.3603 21.5999 20.6152 21.5724C20.8882 21.5429 21.1674 21.4761 21.4192 21.2924C21.6786 21.1031 21.8295 20.8394 21.9424 20.5788C22.0512 20.3277 22.1547 20.0045 22.2749 19.6293L22.2749 19.6293L22.2839 19.6014C24.143 13.7991 29.5819 9.5999 35.9999 9.5999C42.4179 9.5999 47.8568 13.7991 49.7159 19.6014L49.7249 19.6294C49.8451 20.0046 49.9486 20.3278 50.0574 20.5788C50.1703 20.8394 50.3212 21.1031 50.5806 21.2924C50.8324 21.4761 51.1116 21.5429 51.3846 21.5724C51.6395 21.5999 51.9514 21.5999 52.3047 21.5999L52.3347 21.5999H58.9999C60.8777 21.5999 62.3999 23.1221 62.3999 24.9999V34.9999C62.3999 36.8777 60.8777 38.3999 58.9999 38.3999H44.2283L45.4283 39.5999H58.9999C61.5404 39.5999 63.5999 37.5404 63.5999 34.9999V24.9999C63.5999 22.4594 61.5404 20.3999 58.9999 20.3999H52.3347C51.9423 20.3999 51.6962 20.3991 51.5134 20.3793C51.3415 20.3608 51.2996 20.3315 51.288 20.323L51.2879 20.323C51.2835 20.3198 51.2389 20.2872 51.1585 20.1017C51.0762 19.9119 50.9904 19.6463 50.8587 19.2352C48.845 12.9506 42.9547 8.3999 35.9999 8.3999ZM39.7715 39.5999L38.5715 38.3999H37.9999V39.5999H39.7715ZM33.9999 39.5999V38.3999H33.4283L32.2283 39.5999H33.9999Z" fill="#222222"/>
<path d="M36 36L35.5757 35.5757L36 35.1515L36.4243 35.5757L36 36ZM36.6 63C36.6 63.3314 36.3314 63.6 36 63.6C35.6686 63.6 35.4 63.3314 35.4 63L36.6 63ZM23.5757 47.5757L35.5757 35.5757L36.4243 36.4243L24.4243 48.4243L23.5757 47.5757ZM36.4243 35.5757L48.4243 47.5757L47.5757 48.4243L35.5757 36.4243L36.4243 35.5757ZM36.6 36L36.6 63L35.4 63L35.4 36L36.6 36Z" fill="#222222"/>
</svg>
