<svg width="24" height="24" viewBox="0 0 24 24" fill="none" xmlns="http://www.w3.org/2000/svg">
<path d="M22 12L22.3904 11.6877L22.6403 12L22.3904 12.3123L22 12ZM13 12.5C12.7239 12.5 12.5 12.2761 12.5 12C12.5 11.7239 12.7239 11.5 13 11.5V12.5ZM18.3904 6.68765L22.3904 11.6877L21.6096 12.3123L17.6096 7.31235L18.3904 6.68765ZM22.3904 12.3123L18.3904 17.3123L17.6096 16.6877L21.6096 11.6877L22.3904 12.3123ZM22 12.5H13V11.5H22V12.5Z" fill="#8E8E8F"/>
<path d="M14 8.13193V7.38851C14 5.77017 14 4.961 13.526 4.4015C13.0521 3.84201 12.2539 3.70899 10.6576 3.44293L8.98639 3.1644C5.7433 2.62388 4.12175 2.35363 3.06088 3.25232C2 4.15102 2 5.79493 2 9.08276V14.9172C2 18.2051 2 19.849 3.06088 20.7477C4.12175 21.6464 5.7433 21.3761 8.98639 20.8356L10.6576 20.5571C12.2539 20.291 13.0521 20.158 13.526 19.5985C14 19.039 14 18.2298 14 16.6115V16.066" stroke="#8E8E8F"/>
</svg>
