<svg width="41" height="41" viewBox="0 0 41 41" fill="none" xmlns="http://www.w3.org/2000/svg">
<path fill-rule="evenodd" clip-rule="evenodd" d="M24.0968 5.21764V5.21766L24.2573 6.82345C24.4207 8.45699 24.5024 9.27376 25.0552 9.50274C25.608 9.73172 26.2433 9.21194 27.5139 8.17237L27.5139 8.17236L28.7629 7.15046C29.4286 6.60575 29.7615 6.33339 30.1463 6.35259C30.5312 6.37178 30.8353 6.67591 31.4436 7.28416L33.7158 9.55637C34.324 10.1646 34.6281 10.4687 34.6473 10.8536C34.6665 11.2384 34.3942 11.5713 33.8495 12.2371L32.8275 13.4861C31.788 14.7567 31.2682 15.392 31.4971 15.9448C31.7261 16.4976 32.5429 16.5793 34.1764 16.7426L35.7823 16.9032C36.6383 16.9888 37.0662 17.0316 37.3248 17.3173C37.5833 17.603 37.5833 18.0331 37.5833 18.8933V22.1067C37.5833 22.9669 37.5833 23.397 37.3248 23.6827C37.0662 23.9684 36.6383 24.0112 35.7823 24.0968L34.1771 24.2573C32.5435 24.4206 31.7268 24.5023 31.4978 25.0551C31.2688 25.6079 31.7886 26.2432 32.8282 27.5138L33.8495 28.7622C34.3943 29.4279 34.6666 29.7608 34.6474 30.1457C34.6282 30.5305 34.3241 30.8346 33.7158 31.4429L31.4436 33.7151C30.8354 34.3233 30.5313 34.6275 30.1464 34.6467C29.7616 34.6658 29.4287 34.3935 28.763 33.8488L27.514 32.8269C26.2434 31.7873 25.6081 31.2675 25.0553 31.4965C24.5024 31.7255 24.4208 32.5422 24.2574 34.1758L24.0968 35.7823C24.0112 36.6383 23.9684 37.0662 23.6827 37.3248C23.397 37.5833 22.9669 37.5833 22.1067 37.5833H18.8933C18.0331 37.5833 17.603 37.5833 17.3173 37.3248C17.0316 37.0662 16.9888 36.6383 16.9032 35.7823L16.7426 34.1765C16.5793 32.5429 16.4976 31.7262 15.9448 31.4972C15.392 31.2682 14.7567 31.788 13.4861 32.8275L12.237 33.8496C11.5712 34.3943 11.2383 34.6666 10.8535 34.6474C10.4687 34.6282 10.1645 34.3241 9.55629 33.7159L9.55628 33.7158L7.28408 31.4436C6.67583 30.8354 6.3717 30.5313 6.35251 30.1464C6.33331 29.7616 6.60567 29.4287 7.15038 28.763L8.17234 27.5139C9.21192 26.2433 9.73171 25.608 9.50272 25.0552C9.27374 24.5024 8.45697 24.4207 6.82343 24.2573L5.21765 24.0968H5.21763C4.36171 24.0112 3.93375 23.9684 3.6752 23.6827C3.41666 23.397 3.41666 22.9669 3.41666 22.1067V18.8933C3.41666 18.0331 3.41666 17.603 3.6752 17.3173C3.93375 17.0316 4.36172 16.9888 5.21765 16.9032L6.82408 16.7426C8.45761 16.5792 9.27438 16.4976 9.50337 15.9447C9.73235 15.3919 9.21256 14.7566 8.17298 13.486L7.15046 12.2363C6.60575 11.5705 6.33339 11.2376 6.35258 10.8528C6.37178 10.468 6.6759 10.1638 7.28416 9.55559L9.55636 7.28339C10.1646 6.67513 10.4687 6.37101 10.8536 6.35181C11.2384 6.33262 11.5713 6.60498 12.2371 7.14969L13.4862 8.17169C14.7568 9.21126 15.3921 9.73105 15.9449 9.50207C16.4977 9.27309 16.5794 8.45632 16.7427 6.82278L16.9032 5.21766C16.9888 4.36173 17.0316 3.93376 17.3173 3.67521C17.603 3.41666 18.0331 3.41666 18.8933 3.41666H22.1067C22.9669 3.41666 23.397 3.41666 23.6827 3.67521C23.9684 3.93376 24.0112 4.36172 24.0968 5.21764ZM20.5 27.3333C24.2739 27.3333 27.3333 24.2739 27.3333 20.5C27.3333 16.7261 24.2739 13.6667 20.5 13.6667C16.726 13.6667 13.6667 16.7261 13.6667 20.5C13.6667 24.2739 16.726 27.3333 20.5 27.3333Z" fill="#557CF2"/>
</svg>
