<svg width="31" height="31" viewBox="0 0 31 31" fill="none" xmlns="http://www.w3.org/2000/svg">
<circle cx="10.3334" cy="10.3333" r="3.375" stroke="white" stroke-linecap="round"/>
<path d="M15.074 10.9063C15.4359 10.2795 16.032 9.82208 16.7312 9.63474C17.4303 9.4474 18.1753 9.54548 18.8021 9.90739C19.429 10.2693 19.8864 10.8654 20.0737 11.5646C20.2611 12.2637 20.163 13.0087 19.8011 13.6355C19.4392 14.2623 18.8431 14.7197 18.1439 14.9071C17.4447 15.0944 16.6998 14.9964 16.073 14.6344C15.4461 14.2725 14.9887 13.6764 14.8014 12.9773C14.614 12.2781 14.7121 11.5332 15.074 10.9063L15.074 10.9063Z" stroke="#707073" stroke-opacity="0.24"/>
<path d="M17.3575 22.9013L17.8531 22.8357L17.3575 22.9013ZM16.4376 23.3958H4.22924V24.3958H16.4376V23.3958ZM3.80503 22.967C3.93886 21.9569 4.30137 20.3628 5.2638 19.0322C6.20719 17.7279 7.74653 16.6458 10.3334 16.6458V15.6458C7.40924 15.6458 5.57512 16.8955 4.45354 18.4461C3.35099 19.9704 2.957 21.754 2.81369 22.8357L3.80503 22.967ZM10.3334 16.6458C12.9203 16.6458 14.4596 17.7279 15.403 19.0322C16.3655 20.3628 16.728 21.9569 16.8618 22.967L17.8531 22.8357C17.7098 21.754 17.3158 19.9704 16.2133 18.4461C15.0917 16.8955 13.2576 15.6458 10.3334 15.6458V16.6458ZM4.22924 23.3958C3.94131 23.3958 3.777 23.1786 3.80503 22.967L2.81369 22.8357C2.69664 23.7191 3.4126 24.3958 4.22924 24.3958V23.3958ZM16.4376 24.3958C17.2542 24.3958 17.9702 23.7191 17.8531 22.8357L16.8618 22.967C16.8898 23.1786 16.7255 23.3958 16.4376 23.3958V24.3958Z" fill="white"/>
<path d="M22.4157 22.8097L21.9278 22.9187V22.9187L22.4157 22.8097ZM15.2421 18.0585L14.9742 17.6363L14.4591 17.9633L14.8808 18.4041L15.2421 18.0585ZM17.3574 22.9014L16.8617 22.9671L16.8617 22.9671L17.3574 22.9014ZM13.3759 23.3958C13.376 23.3958 13.376 23.3958 13.3757 23.3958C13.3755 23.3958 13.375 23.3958 13.3745 23.3958V24.3958C13.3744 24.3958 13.3744 24.3958 13.3747 24.3958C13.3749 24.3958 13.3754 24.3958 13.3759 24.3958V23.3958ZM21.4992 23.3958H13.3759V24.3958H21.4992V23.3958ZM21.9278 22.9187C21.9791 23.1486 21.8078 23.3958 21.4992 23.3958V24.3958C22.3739 24.3958 23.1102 23.6257 22.9037 22.7008L21.9278 22.9187ZM17.4376 17.9375C18.8995 17.9375 19.9044 18.6976 20.6161 19.7194C21.3373 20.7548 21.7282 22.0248 21.9278 22.9187L22.9037 22.7008C22.6925 21.7547 22.266 20.3386 21.4367 19.1479C20.5978 17.9435 19.319 16.9375 17.4376 16.9375V17.9375ZM15.51 18.4807C16.0364 18.1466 16.668 17.9375 17.4376 17.9375V16.9375C16.4739 16.9375 15.657 17.203 14.9742 17.6363L15.51 18.4807ZM14.8808 18.4041C16.2376 19.8224 16.705 21.7842 16.8617 22.9671L17.8531 22.8358C17.687 21.582 17.181 19.362 15.6034 17.7129L14.8808 18.4041ZM16.8617 22.9671C16.8898 23.1786 16.7255 23.3958 16.4375 23.3958V24.3958C17.2542 24.3958 17.9701 23.7192 17.8531 22.8358L16.8617 22.9671ZM16.4375 23.3958H13.3745V24.3958H16.4375V23.3958Z" fill="#707073"/>
<rect x="16.25" y="5.25" width="4.5" height="0.5" rx="0.25" stroke="white" stroke-width="0.5" stroke-linecap="round"/>
<rect x="18.75" y="3.25" width="4.5" height="0.5" rx="0.25" transform="rotate(90 18.75 3.25)" stroke="white" stroke-width="0.5" stroke-linecap="round"/>
</svg>
