<svg width="34" height="34" viewBox="0 0 34 34" fill="none" xmlns="http://www.w3.org/2000/svg">
<path d="M1.77506 5.43352L6.91286 0.295726C7.30729 -0.0987008 7.94678 -0.0987013 8.34121 0.295726L14.5676 6.52207C14.962 6.9165 14.962 7.55599 14.5676 7.95042L10.4985 12.0195C9.9265 12.5915 9.7847 13.4653 10.1464 14.1887C12.2376 18.3711 15.6289 21.7624 19.8113 23.8536C20.5347 24.2153 21.4085 24.0735 21.9805 23.5015L26.0496 19.4325C26.444 19.038 27.0835 19.038 27.4779 19.4324L33.7043 25.6588C34.0987 26.0532 34.0987 26.6927 33.7043 27.0871L28.5665 32.2249C26.434 34.3574 23.0581 34.5973 20.6455 32.7879L12.1955 26.4504C10.4346 25.1297 8.87029 23.5654 7.54958 21.8045L1.21214 13.3545C-0.597308 10.9419 -0.357389 7.56598 1.77506 5.43352Z" fill="#707073" fill-opacity="0.3"/>
</svg>
