<svg width="48" height="48" viewBox="0 0 48 48" fill="none" xmlns="http://www.w3.org/2000/svg">
<path d="M27.473 43.6962C30.0595 43.2401 32.5309 42.279 34.746 40.8678C36.9611 39.4566 38.8766 37.623 40.383 35.4715C41.8895 33.3201 42.9575 30.893 43.5259 28.3288C44.0944 25.7646 44.1522 23.1136 43.6962 20.527C43.2401 17.9405 42.279 15.4691 40.8678 13.254C39.4566 11.0389 37.623 9.12342 35.4715 7.61696C33.3201 6.1105 30.893 5.04254 28.3288 4.47408C25.7646 3.90561 23.1136 3.84777 20.527 4.30385C17.9405 4.75992 15.4691 5.72099 13.254 7.13217C11.0389 8.54336 9.12342 10.377 7.61696 12.5285C6.11049 14.6799 5.04254 17.107 4.47408 19.6712C3.90561 22.2354 3.84777 24.8864 4.30385 27.473C4.75992 30.0595 5.72099 32.5309 7.13217 34.746C8.54336 36.9611 10.377 38.8766 12.5285 40.383C14.6799 41.8895 17.107 42.9575 19.6712 43.5259C22.2354 44.0944 24.8864 44.1522 27.473 43.6962L27.473 43.6962Z" stroke="#006600" stroke-width="3"/>
<path d="M24 24L24 36" stroke="#006600" stroke-width="3" stroke-linecap="square"/>
<path d="M24 14L24 12" stroke="#006600" stroke-width="3" stroke-linecap="square"/>
</svg>
