<svg width="41" height="41" viewBox="0 0 41 41" fill="none" xmlns="http://www.w3.org/2000/svg">
<path fill-rule="evenodd" clip-rule="evenodd" d="M24.0968 5.21766V5.21768L24.2573 6.82348C24.4207 8.45701 24.5024 9.27378 25.0552 9.50276C25.608 9.73175 26.2433 9.21196 27.5139 8.17239L27.5139 8.17238L28.7629 7.15048C29.4286 6.60577 29.7615 6.33342 30.1464 6.35261C30.5312 6.37181 30.8353 6.67593 31.4436 7.28419L33.7158 9.55639C34.324 10.1646 34.6282 10.4688 34.6474 10.8536C34.6665 11.2384 34.3942 11.5713 33.8495 12.2371L32.8275 13.4861C31.788 14.7567 31.2682 15.392 31.4972 15.9448C31.7261 16.4976 32.5429 16.5793 34.1764 16.7427L35.7823 16.9033C36.6383 16.9888 37.0662 17.0316 37.3248 17.3173C37.5833 17.603 37.5833 18.0331 37.5833 18.8933V22.1067C37.5833 22.9669 37.5833 23.397 37.3248 23.6827C37.0662 23.9684 36.6383 24.0112 35.7823 24.0968L34.1771 24.2573C32.5436 24.4207 31.7268 24.5023 31.4978 25.0552C31.2688 25.608 31.7886 26.2433 32.8282 27.5139L33.8496 28.7622C34.3943 29.428 34.6666 29.7608 34.6474 30.1457C34.6282 30.5305 34.3241 30.8346 33.7159 31.4429L31.4436 33.7151C30.8354 34.3234 30.5313 34.6275 30.1464 34.6467C29.7616 34.6659 29.4287 34.3935 28.763 33.8488L27.514 32.8269C26.2434 31.7873 25.6081 31.2675 25.0553 31.4965C24.5025 31.7255 24.4208 32.5423 24.2574 34.1758L24.0968 35.7824C24.0112 36.6383 23.9684 37.0663 23.6827 37.3248C23.397 37.5834 22.9669 37.5834 22.1067 37.5834H18.8933C18.0331 37.5834 17.603 37.5834 17.3173 37.3248C17.0316 37.0663 16.9888 36.6383 16.9032 35.7824L16.7426 34.1765C16.5793 32.5429 16.4976 31.7262 15.9448 31.4972C15.392 31.2682 14.7567 31.788 13.4861 32.8276L12.237 33.8496C11.5712 34.3943 11.2383 34.6666 10.8535 34.6474C10.4687 34.6283 10.1646 34.3241 9.5563 33.7159L9.55629 33.7159L7.28409 31.4437C6.67583 30.8354 6.37171 30.5313 6.35251 30.1465C6.33332 29.7616 6.60567 29.4287 7.15039 28.763L8.17235 27.5139C9.21193 26.2433 9.73171 25.608 9.50273 25.0552C9.27375 24.5024 8.45698 24.4207 6.82344 24.2574L5.21766 24.0968H5.21764C4.36172 24.0112 3.93376 23.9684 3.67521 23.6827C3.41666 23.397 3.41666 22.9669 3.41666 22.1067V18.8933C3.41666 18.0331 3.41666 17.603 3.67521 17.3173C3.93376 17.0316 4.36173 16.9888 5.21766 16.9033L6.82408 16.7426C8.45762 16.5793 9.27439 16.4976 9.50337 15.9448C9.73236 15.392 9.21257 14.7567 8.17299 13.4861L7.15047 12.2363C6.60575 11.5705 6.3334 11.2377 6.35259 10.8528C6.37179 10.468 6.67591 10.1639 7.28417 9.55562L9.55637 7.28341C10.1646 6.67516 10.4688 6.37103 10.8536 6.35184C11.2384 6.33264 11.5713 6.605 12.2371 7.14971L13.4862 8.17171C14.7568 9.21129 15.3921 9.73108 15.9449 9.50209C16.4977 9.27311 16.5794 8.45634 16.7427 6.8228L16.9032 5.21768C16.9888 4.36175 17.0316 3.93378 17.3173 3.67523C17.603 3.41669 18.0331 3.41669 18.8933 3.41669H22.1067C22.9669 3.41669 23.397 3.41669 23.6827 3.67523C23.9684 3.93378 24.0112 4.36174 24.0968 5.21766ZM20.5 27.3334C24.2739 27.3334 27.3333 24.274 27.3333 20.5C27.3333 16.7261 24.2739 13.6667 20.5 13.6667C16.7261 13.6667 13.6667 16.7261 13.6667 20.5C13.6667 24.274 16.7261 27.3334 20.5 27.3334Z" fill="#707073"/>
</svg>
