<svg width="45" height="45" viewBox="0 0 45 45" fill="none" xmlns="http://www.w3.org/2000/svg">
<g opacity="0.45">
<path fill-rule="evenodd" clip-rule="evenodd" d="M23.375 3.75V14.875L23.375 14.9294V14.9294V14.9294V14.9294C23.3749 15.3535 23.3748 15.7656 23.4205 16.1055C23.472 16.4887 23.5976 16.926 23.9608 17.2892C24.324 17.6524 24.7613 17.778 25.1445 17.8295C25.4844 17.8752 25.8965 17.8751 26.3206 17.875L26.375 17.875H37.5V30C37.5 35.3033 37.5 37.955 35.8525 39.6025C34.205 41.25 31.5533 41.25 26.25 41.25H18.75C13.4467 41.25 10.795 41.25 9.14752 39.6025C7.5 37.955 7.5 35.3033 7.5 30V15C7.5 9.6967 7.5 7.04505 9.14752 5.39752C10.795 3.75 13.4467 3.75 18.75 3.75H23.375ZM25.375 3.75015V14.875C25.375 15.3747 25.3771 15.6488 25.4027 15.839L25.4037 15.8463L25.411 15.8473C25.6012 15.8729 25.8753 15.875 26.375 15.875H37.4999C37.4981 14.5756 37.477 13.8767 37.2146 13.2432C36.9291 12.5541 36.3872 12.0122 35.3033 10.9283L35.3033 10.9283L30.3217 5.9467C29.2378 4.86284 28.6959 4.3209 28.0068 4.03545C27.3733 3.77304 26.6745 3.75186 25.375 3.75015ZM15.875 24.375C15.875 23.8227 16.3227 23.375 16.875 23.375H28.125C28.6773 23.375 29.125 23.8227 29.125 24.375C29.125 24.9273 28.6773 25.375 28.125 25.375H16.875C16.3227 25.375 15.875 24.9273 15.875 24.375ZM16.875 30.875C16.3227 30.875 15.875 31.3227 15.875 31.875C15.875 32.4273 16.3227 32.875 16.875 32.875H24.375C24.9273 32.875 25.375 32.4273 25.375 31.875C25.375 31.3227 24.9273 30.875 24.375 30.875H16.875Z" fill="#707073"/>
</g>
</svg>
